<svg xmlns="http://www.w3.org/2000/svg" xmlns:xlink="http://www.w3.org/1999/xlink" width="80" zoomAndPan="magnify" viewBox="0 0 60 60" height="80" preserveAspectRatio="xMidYMid meet" version="1.0"><defs><clipPath id="cd9d6af7b4"><path d="M 1.800781 1.800781 L 58.050781 1.800781 L 58.050781 58.050781 L 1.800781 58.050781 Z M 1.800781 1.800781 " clip-rule="nonzero"/></clipPath></defs><g clip-path="url(#cd9d6af7b4)"><path fill="#da5161" d="M 58.050781 29.925781 C 58.050781 30.847656 58.003906 31.765625 57.914062 32.683594 C 57.824219 33.597656 57.6875 34.507812 57.507812 35.410156 C 57.328125 36.316406 57.105469 37.207031 56.839844 38.089844 C 56.570312 38.972656 56.261719 39.835938 55.910156 40.6875 C 55.554688 41.539062 55.164062 42.371094 54.730469 43.183594 C 54.292969 43.996094 53.820312 44.785156 53.308594 45.550781 C 52.796875 46.316406 52.25 47.054688 51.664062 47.765625 C 51.082031 48.480469 50.464844 49.160156 49.8125 49.8125 C 49.160156 50.464844 48.480469 51.082031 47.765625 51.664062 C 47.054688 52.25 46.316406 52.796875 45.550781 53.308594 C 44.785156 53.820312 43.996094 54.292969 43.183594 54.730469 C 42.371094 55.164062 41.539062 55.554688 40.6875 55.910156 C 39.835938 56.261719 38.972656 56.570312 38.089844 56.839844 C 37.207031 57.105469 36.316406 57.328125 35.410156 57.507812 C 34.507812 57.6875 33.597656 57.824219 32.683594 57.914062 C 31.765625 58.003906 30.847656 58.050781 29.925781 58.050781 C 29.003906 58.050781 28.085938 58.003906 27.167969 57.914062 C 26.25 57.824219 25.339844 57.6875 24.4375 57.507812 C 23.535156 57.328125 22.640625 57.105469 21.761719 56.839844 C 20.878906 56.570312 20.011719 56.261719 19.160156 55.910156 C 18.3125 55.554688 17.480469 55.164062 16.667969 54.730469 C 15.855469 54.292969 15.066406 53.820312 14.300781 53.308594 C 13.535156 52.796875 12.792969 52.25 12.082031 51.664062 C 11.371094 51.082031 10.6875 50.464844 10.039062 49.8125 C 9.386719 49.160156 8.769531 48.480469 8.183594 47.765625 C 7.601562 47.054688 7.050781 46.316406 6.539062 45.550781 C 6.027344 44.785156 5.554688 43.996094 5.121094 43.183594 C 4.6875 42.371094 4.292969 41.539062 3.941406 40.6875 C 3.589844 39.835938 3.277344 38.972656 3.011719 38.089844 C 2.742188 37.207031 2.519531 36.316406 2.339844 35.410156 C 2.160156 34.507812 2.027344 33.597656 1.933594 32.683594 C 1.84375 31.765625 1.800781 30.847656 1.800781 29.925781 C 1.800781 29.003906 1.84375 28.085938 1.933594 27.167969 C 2.027344 26.25 2.160156 25.339844 2.339844 24.4375 C 2.519531 23.535156 2.742188 22.640625 3.011719 21.761719 C 3.277344 20.878906 3.589844 20.011719 3.941406 19.160156 C 4.292969 18.3125 4.6875 17.480469 5.121094 16.667969 C 5.554688 15.855469 6.027344 15.066406 6.539062 14.300781 C 7.050781 13.535156 7.601562 12.792969 8.183594 12.082031 C 8.769531 11.371094 9.386719 10.6875 10.039062 10.039062 C 10.6875 9.386719 11.371094 8.769531 12.082031 8.183594 C 12.792969 7.601562 13.535156 7.050781 14.300781 6.539062 C 15.066406 6.027344 15.855469 5.554688 16.667969 5.121094 C 17.480469 4.6875 18.3125 4.292969 19.160156 3.941406 C 20.011719 3.589844 20.878906 3.277344 21.761719 3.011719 C 22.640625 2.742188 23.535156 2.519531 24.4375 2.339844 C 25.339844 2.160156 26.25 2.027344 27.167969 1.933594 C 28.085938 1.84375 29.003906 1.800781 29.925781 1.800781 C 30.847656 1.800781 31.765625 1.84375 32.683594 1.933594 C 33.597656 2.027344 34.507812 2.160156 35.410156 2.339844 C 36.316406 2.519531 37.207031 2.742188 38.089844 3.011719 C 38.972656 3.277344 39.835938 3.589844 40.6875 3.941406 C 41.539062 4.292969 42.371094 4.6875 43.183594 5.121094 C 43.996094 5.554688 44.785156 6.027344 45.550781 6.539062 C 46.316406 7.050781 47.054688 7.601562 47.765625 8.183594 C 48.480469 8.769531 49.160156 9.386719 49.8125 10.039062 C 50.464844 10.6875 51.082031 11.371094 51.664062 12.082031 C 52.25 12.792969 52.796875 13.535156 53.308594 14.300781 C 53.820312 15.066406 54.292969 15.855469 54.730469 16.667969 C 55.164062 17.480469 55.554688 18.3125 55.910156 19.160156 C 56.261719 20.011719 56.570312 20.878906 56.839844 21.761719 C 57.105469 22.640625 57.328125 23.535156 57.507812 24.4375 C 57.6875 25.339844 57.824219 26.25 57.914062 27.167969 C 58.003906 28.085938 58.050781 29.003906 58.050781 29.925781 Z M 58.050781 29.925781 " fill-opacity="1" fill-rule="nonzero"/></g><path fill="#a1cdcc" d="M 36.636719 27.988281 L 36.636719 16.152344 C 36.636719 15.875 36.410156 15.652344 36.136719 15.652344 L 20.304688 15.652344 C 20.027344 15.652344 19.804688 15.875 19.804688 16.152344 L 19.804688 27.988281 Z M 33.484375 21.234375 C 33.484375 21.511719 33.261719 21.734375 32.984375 21.734375 L 23.453125 21.734375 C 23.175781 21.734375 22.953125 21.511719 22.953125 21.234375 C 22.953125 20.957031 23.175781 20.734375 23.453125 20.734375 L 32.984375 20.734375 C 33.261719 20.734375 33.484375 20.957031 33.484375 21.234375 Z M 32.984375 18.363281 L 23.453125 18.363281 C 23.175781 18.363281 22.953125 18.140625 22.953125 17.863281 C 22.953125 17.585938 23.175781 17.363281 23.453125 17.363281 L 32.984375 17.363281 C 33.261719 17.363281 33.484375 17.585938 33.484375 17.863281 C 33.484375 18.140625 33.261719 18.363281 32.984375 18.363281 Z M 23.453125 24.105469 L 32.984375 24.105469 C 33.261719 24.105469 33.484375 24.328125 33.484375 24.605469 C 33.484375 24.882812 33.261719 25.105469 32.984375 25.105469 L 23.453125 25.105469 C 23.175781 25.105469 22.953125 24.882812 22.953125 24.605469 C 22.953125 24.328125 23.175781 24.105469 23.453125 24.105469 Z M 23.453125 24.105469 " fill-opacity="1" fill-rule="evenodd"/><path fill="#30303f" d="M 37.234375 30.667969 L 17.558594 30.667969 C 17.28125 30.667969 17.058594 30.890625 17.058594 31.199219 L 17.273438 35.25 L 14.25 39.042969 C 14.164062 39.148438 14.128906 39.277344 14.140625 39.398438 L 14.148438 43.699219 L 14.144531 43.699219 C 14.144531 43.976562 14.367188 44.199219 14.644531 44.199219 L 41.691406 44.199219 C 41.964844 44.199219 42.191406 43.976562 42.191406 43.699219 L 42.1875 43.667969 L 42.28125 39.375 C 42.285156 39.246094 42.242188 39.128906 42.167969 39.039062 L 39.335938 35.292969 L 39.277344 31.160156 C 39.273438 30.886719 39.050781 30.667969 38.777344 30.667969 Z M 14.25 39.042969 Z M 38.441406 35.765625 Z M 21.402344 33.734375 C 21.125 33.734375 20.902344 33.960938 20.902344 34.234375 C 20.902344 34.511719 21.125 34.734375 21.402344 34.734375 L 22.378906 34.734375 C 22.65625 34.734375 22.878906 34.511719 22.878906 34.234375 C 22.878906 33.960938 22.65625 33.734375 22.378906 33.734375 Z M 24.597656 33.734375 C 24.320312 33.734375 24.097656 33.960938 24.097656 34.234375 C 24.097656 34.511719 24.320312 34.734375 24.597656 34.734375 L 25.574219 34.734375 C 25.851562 34.734375 26.074219 34.511719 26.074219 34.234375 C 26.074219 33.960938 25.851562 33.734375 25.574219 33.734375 Z M 27.792969 33.734375 C 27.515625 33.734375 27.292969 33.960938 27.292969 34.234375 C 27.292969 34.511719 27.515625 34.734375 27.792969 34.734375 L 28.769531 34.734375 C 29.046875 34.734375 29.269531 34.511719 29.269531 34.234375 C 29.269531 33.960938 29.046875 33.734375 28.769531 33.734375 Z M 30.988281 33.734375 C 30.710938 33.734375 30.488281 33.960938 30.488281 34.234375 C 30.488281 34.511719 30.710938 34.734375 30.988281 34.734375 L 31.964844 34.734375 C 32.238281 34.734375 32.464844 34.511719 32.464844 34.234375 C 32.464844 33.960938 32.238281 33.734375 31.964844 33.734375 Z M 34.183594 33.734375 C 33.90625 33.734375 33.683594 33.960938 33.683594 34.234375 C 33.683594 34.511719 33.90625 34.734375 34.183594 34.734375 L 35.160156 34.734375 C 35.433594 34.734375 35.660156 34.511719 35.660156 34.234375 C 35.660156 33.960938 35.433594 33.734375 35.160156 33.734375 Z M 19.871094 36.015625 C 19.59375 36.015625 19.371094 36.242188 19.371094 36.515625 C 19.371094 36.792969 19.59375 37.015625 19.871094 37.015625 L 20.847656 37.015625 C 21.121094 37.015625 21.347656 36.792969 21.347656 36.515625 C 21.347656 36.242188 21.121094 36.015625 20.847656 36.015625 Z M 23.15625 36.015625 C 22.878906 36.015625 22.65625 36.242188 22.65625 36.515625 C 22.65625 36.792969 22.878906 37.015625 23.15625 37.015625 L 24.128906 37.015625 C 24.40625 37.015625 24.628906 36.792969 24.628906 36.515625 C 24.628906 36.242188 24.40625 36.015625 24.128906 36.015625 Z M 26.441406 36.015625 C 26.164062 36.015625 25.9375 36.242188 25.9375 36.515625 C 25.9375 36.792969 26.164062 37.015625 26.441406 37.015625 L 27.414062 37.015625 C 27.691406 37.015625 27.914062 36.792969 27.914062 36.515625 C 27.914062 36.242188 27.691406 36.015625 27.414062 36.015625 Z M 29.722656 36.015625 C 29.449219 36.015625 29.222656 36.242188 29.222656 36.515625 C 29.222656 36.792969 29.449219 37.015625 29.722656 37.015625 L 30.699219 37.015625 C 30.976562 37.015625 31.199219 36.792969 31.199219 36.515625 C 31.199219 36.242188 30.976562 36.015625 30.699219 36.015625 Z M 33.007812 36.015625 C 32.730469 36.015625 32.507812 36.242188 32.507812 36.515625 C 32.507812 36.792969 32.730469 37.015625 33.007812 37.015625 L 33.984375 37.015625 C 34.261719 37.015625 34.484375 36.792969 34.484375 36.515625 C 34.484375 36.242188 34.261719 36.015625 33.984375 36.015625 Z M 36.292969 36.015625 C 36.015625 36.015625 35.792969 36.242188 35.792969 36.515625 C 35.792969 36.792969 36.015625 37.015625 36.292969 37.015625 L 37.269531 37.015625 C 37.546875 37.015625 37.769531 36.792969 37.769531 36.515625 C 37.769531 36.242188 37.546875 36.015625 37.269531 36.015625 Z M 21.402344 38.285156 C 21.125 38.285156 20.902344 38.507812 20.902344 38.785156 C 20.902344 39.0625 21.125 39.285156 21.402344 39.285156 L 22.378906 39.285156 C 22.65625 39.285156 22.878906 39.0625 22.878906 38.785156 C 22.878906 38.507812 22.65625 38.285156 22.378906 38.285156 Z M 24.597656 38.285156 C 24.320312 38.285156 24.097656 38.507812 24.097656 38.785156 C 24.097656 39.0625 24.320312 39.285156 24.597656 39.285156 L 25.574219 39.285156 C 25.851562 39.285156 26.074219 39.0625 26.074219 38.785156 C 26.074219 38.507812 25.851562 38.285156 25.574219 38.285156 Z M 27.792969 38.285156 C 27.515625 38.285156 27.292969 38.507812 27.292969 38.785156 C 27.292969 39.0625 27.515625 39.285156 27.792969 39.285156 L 28.769531 39.285156 C 29.046875 39.285156 29.269531 39.0625 29.269531 38.785156 C 29.269531 38.507812 29.046875 38.285156 28.769531 38.285156 Z M 30.988281 38.285156 C 30.710938 38.285156 30.488281 38.507812 30.488281 38.785156 C 30.488281 39.0625 30.710938 39.285156 30.988281 39.285156 L 31.964844 39.285156 C 32.238281 39.285156 32.464844 39.0625 32.464844 38.785156 C 32.464844 38.507812 32.238281 38.285156 31.964844 38.285156 Z M 34.183594 38.285156 C 33.90625 38.285156 33.683594 38.507812 33.683594 38.785156 C 33.683594 39.0625 33.90625 39.285156 34.183594 39.285156 L 35.160156 39.285156 C 35.433594 39.285156 35.660156 39.0625 35.660156 38.785156 C 35.660156 38.507812 35.433594 38.285156 35.160156 38.285156 Z M 21.402344 40.757812 C 21.125 40.757812 20.902344 40.980469 20.902344 41.257812 C 20.902344 41.535156 21.125 41.757812 21.402344 41.757812 L 22.378906 41.757812 C 22.65625 41.757812 22.878906 41.535156 22.878906 41.257812 C 22.878906 40.980469 22.65625 40.757812 22.378906 40.757812 Z M 34.398438 40.757812 C 34.121094 40.757812 33.898438 40.980469 33.898438 41.257812 C 33.898438 41.535156 34.121094 41.757812 34.398438 41.757812 L 35.371094 41.757812 C 35.648438 41.757812 35.871094 41.535156 35.871094 41.257812 C 35.871094 40.980469 35.648438 40.757812 35.371094 40.757812 Z M 34.398438 40.757812 " fill-opacity="1" fill-rule="evenodd"/><path fill="#30303f" d="M 17.992188 31.167969 C 17.992188 31.441406 18.214844 31.667969 18.492188 31.667969 C 19.132812 31.667969 31.957031 31.667969 37.734375 31.667969 C 38.007812 31.667969 38.234375 31.441406 38.234375 31.167969 L 38.234375 27.316406 C 38.234375 27.042969 38.007812 26.816406 37.734375 26.816406 L 18.492188 26.816406 C 18.214844 26.816406 17.992188 27.042969 17.992188 27.316406 Z M 17.992188 31.167969 " fill-opacity="1" fill-rule="nonzero"/><path fill="#30303f" d="M 37.734375 26.816406 C 37.457031 26.816406 37.234375 27.042969 37.234375 27.316406 C 37.234375 28.160156 37.234375 28.566406 37.234375 29.40625 C 37.234375 29.683594 37.457031 29.90625 37.734375 29.90625 L 39.929688 29.90625 C 40.207031 29.90625 40.429688 29.683594 40.429688 29.40625 L 40.429688 27.316406 C 40.429688 27.042969 40.207031 26.816406 39.929688 26.816406 Z M 37.734375 26.816406 " fill-opacity="1" fill-rule="nonzero"/><path fill="#30303f" d="M 16.570312 28.796875 C 16.292969 28.796875 16.070312 29.019531 16.070312 29.296875 C 16.070312 29.574219 16.292969 29.796875 16.570312 29.796875 L 18.492188 29.796875 C 18.769531 29.796875 18.992188 29.574219 18.992188 29.296875 C 18.992188 29.019531 18.769531 28.796875 18.492188 28.796875 Z M 18.492188 27.816406 C 18.769531 27.816406 18.992188 27.59375 18.992188 27.316406 C 18.992188 27.042969 18.769531 26.816406 18.492188 26.816406 L 16.570312 26.816406 C 16.292969 26.816406 16.070312 27.042969 16.070312 27.316406 C 16.070312 27.59375 16.292969 27.816406 16.570312 27.816406 Z M 18.492188 27.816406 " fill-opacity="1" fill-rule="nonzero"/><path fill="#30303f" d="M 14.753906 25.9375 L 16.238281 25.9375 C 16.464844 25.9375 16.671875 26.03125 16.824219 26.183594 C 16.839844 26.195312 16.851562 26.210938 16.863281 26.226562 C 16.992188 26.371094 17.070312 26.5625 17.070312 26.769531 L 17.070312 29.847656 C 17.070312 30.074219 16.976562 30.28125 16.824219 30.429688 L 16.824219 30.433594 C 16.8125 30.449219 16.796875 30.460938 16.78125 30.472656 C 16.636719 30.597656 16.445312 30.675781 16.238281 30.675781 L 14.753906 30.675781 C 14.527344 30.675781 14.320312 30.582031 14.171875 30.433594 L 14.167969 30.433594 L 14.15625 30.421875 C 14.015625 30.273438 13.925781 30.070312 13.925781 29.847656 L 13.925781 26.769531 C 13.925781 26.539062 14.019531 26.332031 14.167969 26.183594 C 14.183594 26.167969 14.195312 26.15625 14.210938 26.144531 C 14.359375 26.015625 14.546875 25.9375 14.753906 25.9375 Z M 14.753906 25.9375 " fill-opacity="1" fill-rule="nonzero"/><path fill="#30303f" d="M 39.929688 27.808594 C 39.65625 27.808594 39.429688 28.03125 39.429688 28.308594 C 39.429688 28.582031 39.65625 28.808594 39.929688 28.808594 L 42.785156 28.808594 C 43.0625 28.808594 43.285156 28.582031 43.285156 28.308594 L 43.285156 23.769531 L 45.425781 23.769531 C 45.703125 23.769531 45.925781 23.546875 45.925781 23.269531 C 45.925781 22.992188 45.703125 22.769531 45.425781 22.769531 L 42.785156 22.769531 C 42.511719 22.769531 42.285156 22.992188 42.285156 23.269531 L 42.285156 27.808594 Z M 39.929688 27.808594 " fill-opacity="1" fill-rule="nonzero"/></svg>