<svg xmlns="http://www.w3.org/2000/svg" xmlns:xlink="http://www.w3.org/1999/xlink" width="80" zoomAndPan="magnify" viewBox="0 0 60 60" height="80" preserveAspectRatio="xMidYMid meet" version="1.0"><defs><clipPath id="eaf5720da4"><path d="M 2.414062 6 L 57.914062 6 L 57.914062 54 L 2.414062 54 Z M 2.414062 6 " clip-rule="nonzero"/></clipPath></defs><g clip-path="url(#eaf5720da4)"><path fill="#da5161" d="M 57.914062 16.710938 L 57.914062 35.488281 C 57.914062 41.390625 53.28125 46.179688 47.5625 46.179688 L 39.257812 46.179688 C 38.613281 46.179688 38 46.453125 37.5625 46.941406 L 32.378906 52.671875 C 31.195312 53.980469 29.132812 53.980469 27.945312 52.671875 L 22.761719 46.941406 C 22.324219 46.453125 21.710938 46.179688 21.066406 46.179688 L 12.765625 46.179688 C 7.050781 46.179688 2.414062 41.390625 2.414062 35.484375 L 2.414062 16.710938 C 2.414062 10.804688 7.050781 6.015625 12.765625 6.015625 L 47.5625 6.015625 C 53.277344 6.015625 57.914062 10.804688 57.914062 16.710938 Z M 57.914062 16.710938 " fill-opacity="1" fill-rule="nonzero"/></g><path fill="#ffffff" d="M 38.589844 30.191406 C 41.28125 25.671875 39.6875 19.894531 35.035156 17.28125 C 30.382812 14.671875 24.429688 16.214844 21.738281 20.734375 C 19.046875 25.25 20.636719 31.027344 25.292969 33.640625 C 28.328125 35.34375 32.070312 35.332031 35.09375 33.609375 L 38.769531 34.605469 C 39.265625 34.738281 39.726562 34.28125 39.585938 33.789062 Z M 38.589844 30.191406 " fill-opacity="1" fill-rule="nonzero"/></svg>