<svg xmlns="http://www.w3.org/2000/svg" xmlns:xlink="http://www.w3.org/1999/xlink" width="80" zoomAndPan="magnify" viewBox="0 0 60 60" height="80" preserveAspectRatio="xMidYMid meet" version="1.0"><defs><clipPath id="64a825b71e"><path d="M 4.296875 5.140625 L 55.695312 5.140625 L 55.695312 54.640625 L 4.296875 54.640625 Z M 4.296875 5.140625 " clip-rule="nonzero"/></clipPath></defs><g clip-path="url(#64a825b71e)"><path fill="#da5161" d="M 43.484375 54.601562 C 43.621094 54.601562 43.757812 54.566406 43.878906 54.5 C 44.136719 54.359375 44.300781 54.089844 44.300781 53.796875 L 44.300781 45.21875 L 48.289062 45.21875 C 52.375 45.21875 55.695312 41.933594 55.695312 37.890625 L 55.695312 12.507812 C 55.695312 8.464844 52.375 5.179688 48.289062 5.179688 L 11.359375 5.179688 C 7.273438 5.179688 3.949219 8.464844 3.949219 12.507812 L 3.949219 37.890625 C 3.949219 41.933594 7.273438 45.21875 11.359375 45.21875 L 28.179688 45.21875 C 33.136719 48.304688 38.09375 51.390625 43.050781 54.476562 C 43.183594 54.558594 43.335938 54.601562 43.484375 54.601562 Z M 48.289062 6.789062 C 51.476562 6.789062 54.070312 9.355469 54.070312 12.507812 L 54.070312 37.890625 C 54.070312 41.042969 51.476562 43.609375 48.289062 43.609375 L 43.484375 43.609375 C 43.035156 43.609375 42.671875 43.96875 42.671875 44.414062 L 42.671875 52.339844 C 38.0625 49.46875 33.457031 46.601562 28.847656 43.734375 C 28.71875 43.652344 28.566406 43.609375 28.414062 43.609375 L 11.359375 43.609375 C 8.171875 43.609375 5.578125 41.042969 5.578125 37.890625 L 5.578125 12.507812 C 5.578125 9.355469 8.171875 6.789062 11.359375 6.789062 Z M 48.289062 6.789062 " fill-opacity="1" fill-rule="nonzero"/></g></svg>