<svg xmlns="http://www.w3.org/2000/svg" xmlns:xlink="http://www.w3.org/1999/xlink" width="80" zoomAndPan="magnify" viewBox="0 0 60 60" height="80" preserveAspectRatio="xMidYMid meet" version="1.0"><defs><clipPath id="aae10466a6"><path d="M 14.597656 4 L 26 4 L 26 27 L 14.597656 27 Z M 14.597656 4 " clip-rule="nonzero"/></clipPath><clipPath id="b64457ea86"><path d="M 21 26 L 45.347656 26 L 45.347656 30 L 21 30 Z M 21 26 " clip-rule="nonzero"/></clipPath><clipPath id="6463b44557"><path d="M 23 31 L 44 31 L 44 47.5 L 23 47.5 Z M 23 31 " clip-rule="nonzero"/></clipPath></defs><path fill="#a1cdcc" d="M 34.261719 11.996094 L 28.484375 17.753906 L 33.390625 16.882812 Z M 34.261719 11.996094 " fill-opacity="1" fill-rule="nonzero"/><path fill="#a1cdcc" d="M 40.921875 16.148438 L 36.039062 11.28125 L 34.886719 17.722656 C 34.824219 18.054688 34.5625 18.3125 34.230469 18.375 L 27.769531 19.535156 L 32.652344 24.402344 Z M 40.921875 16.148438 " fill-opacity="1" fill-rule="nonzero"/><g clip-path="url(#aae10466a6)"><path fill="#a1cdcc" d="M 20.914062 4 L 19.269531 11.21875 L 17.773438 10.875 C 16.765625 10.648438 15.769531 11.28125 15.542969 12.273438 L 14.824219 15.414062 C 14.597656 16.417969 15.230469 17.410156 16.226562 17.640625 L 17.722656 17.980469 L 16.082031 25.199219 L 20.515625 26.277344 L 25.347656 5.066406 Z M 20.914062 4 " fill-opacity="1" fill-rule="nonzero"/></g><g clip-path="url(#b64457ea86)"><path fill="#a1cdcc" d="M 21.265625 26.886719 L 45.347656 26.886719 L 45.347656 29.519531 L 21.265625 29.519531 Z M 21.265625 26.886719 " fill-opacity="1" fill-rule="nonzero"/></g><g clip-path="url(#6463b44557)"><path fill="#a1cdcc" d="M 39.113281 42.496094 C 39.113281 42.941406 38.75 43.292969 38.3125 43.292969 C 37.867188 43.292969 37.511719 42.929688 37.511719 42.496094 L 37.511719 31.113281 L 34.117188 31.113281 L 34.117188 42.496094 C 34.117188 42.941406 33.753906 43.292969 33.316406 43.292969 C 32.871094 43.292969 32.515625 42.929688 32.515625 42.496094 L 32.515625 31.113281 L 29.121094 31.113281 L 29.121094 42.496094 C 29.121094 42.941406 28.753906 43.292969 28.320312 43.292969 C 27.882812 43.292969 27.519531 42.929688 27.519531 42.496094 L 27.519531 31.113281 L 23.40625 31.113281 L 23.40625 44.804688 C 23.40625 46.285156 24.609375 47.5 26.105469 47.5 L 40.558594 47.5 C 42.042969 47.5 43.257812 46.296875 43.257812 44.804688 L 43.257812 31.113281 L 39.144531 31.113281 L 39.144531 42.496094 Z M 39.113281 42.496094 " fill-opacity="1" fill-rule="nonzero"/></g></svg>