<svg xmlns="http://www.w3.org/2000/svg" xmlns:xlink="http://www.w3.org/1999/xlink" width="80" zoomAndPan="magnify" viewBox="0 0 60 60" height="80" preserveAspectRatio="xMidYMid meet" version="1.0"><defs><clipPath id="e8ca4a0347"><path d="M 2.4375 2.4375 L 57.9375 2.4375 L 57.9375 57.9375 L 2.4375 57.9375 Z M 2.4375 2.4375 " clip-rule="nonzero"/></clipPath></defs><g clip-path="url(#e8ca4a0347)"><path fill="#da5161" d="M 48.757812 39.191406 C 48.421875 40.328125 47.410156 41.132812 46.222656 41.214844 C 39.425781 41.6875 33.847656 44.742188 31.449219 46.269531 L 31.449219 29.894531 C 31.449219 29.757812 31.429688 29.628906 31.390625 29.507812 C 39.707031 21.460938 53.804688 22.195312 53.804688 22.195312 Z M 31.117188 46.308594 C 31.117188 46.824219 30.699219 47.242188 30.183594 47.242188 C 29.667969 47.242188 29.25 46.824219 29.25 46.308594 L 29.25 29.894531 C 29.25 29.375 29.667969 28.957031 30.183594 28.957031 C 30.699219 28.957031 31.117188 29.375 31.117188 29.894531 Z M 28.914062 29.894531 L 28.914062 46.269531 C 26.515625 44.742188 20.941406 41.6875 14.140625 41.214844 C 12.957031 41.132812 11.945312 40.328125 11.609375 39.191406 L 6.5625 22.195312 C 6.5625 22.195312 20.660156 21.460938 28.976562 29.507812 C 28.9375 29.628906 28.914062 29.757812 28.914062 29.894531 Z M 29.554688 28.792969 C 29.523438 28.8125 29.492188 28.832031 29.460938 28.851562 C 27.683594 27.003906 22.550781 22.613281 13.253906 21.789062 C 12.390625 21.714844 11.632812 21.1875 11.261719 20.40625 L 10.597656 19.015625 C 10.597656 19.015625 23.199219 20.433594 29.554688 28.792969 Z M 29.046875 26.949219 C 29.046875 26.949219 25.300781 21.914062 16.753906 19.828125 C 15.738281 19.578125 14.992188 18.703125 14.90625 17.660156 C 19.359375 18.757812 25.488281 21.257812 29.046875 26.949219 Z M 28.484375 24.335938 C 28.625 24.566406 28.675781 24.695312 28.675781 24.695312 C 28.613281 24.574219 28.550781 24.453125 28.484375 24.335938 C 27.984375 23.507812 26.304688 21.375 21.375 19.101562 C 20.550781 18.722656 20.007812 17.914062 19.960938 17.007812 L 19.917969 16.203125 C 22.867188 17.992188 26.566406 20.777344 28.484375 24.335938 Z M 49.765625 19.015625 L 49.105469 20.40625 C 48.730469 21.1875 47.972656 21.714844 47.113281 21.789062 C 37.816406 22.613281 32.683594 27.003906 30.90625 28.851562 C 30.875 28.832031 30.84375 28.8125 30.8125 28.792969 C 37.167969 20.433594 49.765625 19.015625 49.765625 19.015625 Z M 45.460938 17.660156 C 45.371094 18.703125 44.628906 19.578125 43.609375 19.828125 C 35.0625 21.914062 31.316406 26.949219 31.316406 26.949219 C 34.878906 21.257812 41.003906 18.757812 45.460938 17.660156 Z M 31.878906 24.335938 C 33.800781 20.777344 37.5 17.992188 40.449219 16.203125 L 40.40625 17.007812 C 40.359375 17.914062 39.8125 18.722656 38.992188 19.101562 C 34.0625 21.375 32.378906 23.507812 31.878906 24.335938 C 31.816406 24.453125 31.753906 24.574219 31.691406 24.695312 C 31.691406 24.695312 31.738281 24.566406 31.878906 24.335938 Z M 30.183594 2.433594 C 14.855469 2.433594 2.433594 14.855469 2.433594 30.183594 C 2.433594 45.507812 14.855469 57.933594 30.183594 57.933594 C 45.507812 57.933594 57.933594 45.507812 57.933594 30.183594 C 57.933594 14.855469 45.507812 2.433594 30.183594 2.433594 " fill-opacity="1" fill-rule="nonzero"/></g></svg>