<svg xmlns="http://www.w3.org/2000/svg" xmlns:xlink="http://www.w3.org/1999/xlink" width="80" zoomAndPan="magnify" viewBox="0 0 60 60" height="80" preserveAspectRatio="xMidYMid meet" version="1.0"><defs><clipPath id="b600236a9e"><path d="M 1.171875 38 L 25 38 L 25 44 L 1.171875 44 Z M 1.171875 38 " clip-rule="nonzero"/></clipPath><clipPath id="8cac9d7b68"><path d="M 49 16 L 58.921875 16 L 58.921875 26 L 49 26 Z M 49 16 " clip-rule="nonzero"/></clipPath></defs><g clip-path="url(#b600236a9e)"><path fill="#da5161" d="M 3.550781 43.613281 C 2.234375 43.613281 1.171875 42.5625 1.171875 41.265625 C 1.171875 39.96875 2.234375 38.917969 3.550781 38.917969 C 4.863281 38.917969 5.929688 39.96875 5.929688 41.265625 C 5.929688 42.5625 4.863281 43.613281 3.550781 43.613281 Z M 13.070312 43.613281 C 11.753906 43.613281 10.6875 42.5625 10.6875 41.265625 C 10.6875 39.96875 11.753906 38.917969 13.070312 38.917969 C 14.382812 38.917969 15.449219 39.96875 15.449219 41.265625 C 15.449219 42.5625 14.382812 43.613281 13.070312 43.613281 Z M 22.589844 43.613281 C 21.273438 43.613281 20.207031 42.5625 20.207031 41.265625 C 20.207031 39.96875 21.273438 38.917969 22.589844 38.917969 C 23.902344 38.917969 24.96875 39.96875 24.96875 41.265625 C 24.96875 42.5625 23.902344 43.613281 22.589844 43.613281 Z M 22.589844 43.613281 " fill-opacity="1" fill-rule="evenodd"/></g><path fill="#e0e0e0" d="M 34.003906 34 C 33.855469 34.132812 33.757812 34.316406 33.695312 34.511719 L 31.722656 41.4375 L 33.1875 42.882812 L 40.214844 40.9375 C 40.410156 40.886719 40.585938 40.777344 40.734375 40.640625 L 57.566406 24.027344 L 50.824219 17.386719 Z M 34.003906 34 " fill-opacity="1" fill-rule="evenodd"/><path fill="#e0e0e0" d="M 31.710938 41.4375 L 31.152344 43.457031 L 33.199219 42.894531 C 33.160156 42.136719 32.492188 41.472656 31.710938 41.4375 Z M 31.710938 41.4375 " fill-opacity="1" fill-rule="evenodd"/><g clip-path="url(#8cac9d7b68)"><path fill="#da5161" d="M 49.148438 19.050781 L 55.878906 25.691406 L 58.398438 23.195312 C 58.867188 22.746094 58.867188 21.996094 58.398438 21.53125 L 53.351562 16.554688 C 52.894531 16.101562 52.136719 16.101562 51.667969 16.554688 Z M 49.148438 19.050781 " fill-opacity="1" fill-rule="evenodd"/></g><path fill="#da5161" d="M 55.878906 25.691406 L 49.148438 19.050781 L 34.003906 34 L 40.734375 40.640625 Z M 55.878906 25.691406 " fill-opacity="1" fill-rule="evenodd"/></svg>